<svg width="252" height="297" viewBox="0 0 252 297" fill="none" xmlns="http://www.w3.org/2000/svg">
<g clip-path="url(#clip0_95_229)">
<path d="M59.8753 60.2538L68.9882 75.8458C69.1337 76.0923 69.1998 76.3776 69.1601 76.663C67.0307 94.8363 60.206 124.49 60.7747 141.21C61.7138 168.334 88.1531 169.748 94.7794 169.67C95.5995 169.67 96.274 170.293 96.274 171.058V186.935C96.274 187.701 96.9353 188.323 97.7553 188.323H154.231C155.052 188.323 155.713 187.701 155.713 186.935V171.058C155.713 170.28 156.387 169.657 157.207 169.67C163.834 169.748 190.286 168.334 191.212 141.21C191.781 124.49 184.956 94.8234 182.827 76.663C182.787 76.3776 182.853 76.0923 182.999 75.8458L192.112 60.2538C192.363 59.8257 192.839 59.5404 193.368 59.5274C207.428 59.1512 235.996 59.8647 250.505 59.8776C251.326 59.8776 251.987 60.5003 251.987 61.2656V123.491C251.987 124.256 251.326 124.879 250.505 124.879H239.647C238.827 124.879 238.165 125.501 238.165 126.267V131.533C238.165 132.389 237.345 133.038 236.459 132.908C205.073 128.368 207.93 139.018 215.271 145.335C220.31 149.655 231.433 153.196 236.684 152.483H236.763C236.763 157.334 237.279 162.121 236.512 166.751C236.208 168.542 233.219 170.578 231.129 171.343C210.813 178.724 187.086 178.672 180.882 178.504C180.036 178.478 179.348 179.126 179.361 179.918L179.917 213.151C179.917 213.93 179.256 214.565 178.436 214.565H73.5777C72.7445 214.565 72.0831 213.93 72.0964 213.151L72.6519 179.918C72.6519 179.126 71.9773 178.478 71.1309 178.504C64.9277 178.659 41.1998 178.724 20.8843 171.343C18.7945 170.578 15.8054 168.542 15.5012 166.751C14.8134 162.626 15.1573 158.372 15.2367 154.039C15.2499 153.209 16.0435 152.573 16.9164 152.69C18.94 152.95 20.8975 153.196 22.8418 153.468C37.9991 155.674 38.4488 150.057 37.179 146.23C36.5045 144.181 35.1819 142.404 33.5418 140.925C30.5659 138.279 24.3892 133.946 15.2234 133.246C14.4563 133.181 13.8611 132.584 13.8611 131.858V126.267C13.8611 125.501 13.1998 124.879 12.3798 124.879H1.52103C0.701004 124.879 0.0396881 124.256 0.0396881 123.491V61.2656C0.0396881 60.5003 0.701004 59.8776 1.52103 59.8776C16.0302 59.8647 44.5858 59.1512 58.6585 59.5274C59.1876 59.5404 59.6637 59.8128 59.915 60.2538H59.8753ZM229.634 89.2066C221.791 81.1512 213.141 81.3977 204.61 89.1548C204.015 89.6996 204.015 90.6076 204.61 91.1654C213.141 98.9095 221.791 99.1559 229.634 91.1135C230.15 90.5816 230.15 89.7514 229.634 89.2196V89.2066ZM33.9122 97.0415C38.343 97.2361 42.8796 95.2385 47.3897 91.1524C47.9981 90.6076 47.9981 89.6866 47.3897 89.1418C42.8796 85.0557 38.343 83.0581 33.9122 83.2526C29.5078 83.0581 25.1828 84.9908 21.0827 89.2066C20.5669 89.7385 20.5669 90.5557 21.0827 91.0875C25.1828 95.3033 29.5078 97.2491 33.9122 97.0415Z" fill="#27AAE1"/>
<path d="M190.498 28.0189V1.90684C190.498 1.03774 189.784 0.337264 188.897 0.337264H166.36C165.474 0.337264 164.759 1.03774 164.759 1.90684C164.733 8.0684 164.601 16.8762 164.72 22.6616C164.733 23.5436 164.019 24.2571 163.119 24.2571H142.195C141.296 24.2571 140.569 23.5307 140.595 22.6486C140.727 16.8373 140.582 7.67925 140.555 1.56958C140.555 0.700472 139.828 0 138.955 0H113.098C112.212 0 111.497 0.700472 111.497 1.56958C111.471 7.67925 111.312 16.8373 111.458 22.6486C111.484 23.5307 110.757 24.2571 109.857 24.2571H88.9333C88.0339 24.2571 87.3065 23.5436 87.3329 22.6616C87.452 16.8762 87.3197 8.0684 87.2933 1.90684C87.2933 1.03774 86.5791 0.337264 85.6929 0.337264C81.0769 0.337264 67.7581 0.337264 63.1421 0.337264C62.256 0.337264 61.5417 1.03774 61.5417 1.90684V28.0318C61.5417 28.3821 61.6608 28.7323 61.8856 29.0047L85.9177 48.3844C86.1823 48.7087 86.3013 49.1238 86.2484 49.5389C84.119 67.0637 82.2673 107.354 81.3547 124.684C80.7859 135.697 86.2087 142.754 97.1336 145.257C98.1256 145.491 99.0779 144.725 99.0779 143.713V97.0672C99.0779 96.5743 98.8398 96.1203 98.443 95.8219C96.4987 94.3821 95.2422 92.1769 95.2026 89.6085C95.1364 85.3149 98.5885 81.6179 102.953 81.3326C107.807 81.0212 111.854 84.783 111.854 89.4658C111.854 92.0472 110.624 94.3302 108.707 95.809C108.323 96.1073 108.098 96.5613 108.098 97.0413V147.696C108.098 148.5 108.72 149.188 109.54 149.265C112.727 149.564 116.127 149.849 119.539 150.16C120.478 150.251 121.285 149.525 121.285 148.591V73.6274C121.285 73.1604 121.073 72.7193 120.703 72.421C118.349 70.5012 117.105 67.2453 117.965 63.9634C118.798 60.7984 121.576 58.4245 124.882 57.9965C129.974 57.3349 134.326 61.2134 134.326 66.0778C134.326 68.5943 133.162 70.9163 131.324 72.421C130.953 72.7193 130.742 73.1604 130.742 73.6274V148.591C130.742 149.512 131.548 150.238 132.487 150.16C135.9 149.849 139.299 149.564 142.486 149.265C143.306 149.188 143.928 148.513 143.928 147.696V97.0542C143.928 96.5613 143.69 96.1073 143.306 95.809C141.362 94.3302 140.106 92.0731 140.106 89.4658C140.106 84.796 144.087 81.0472 148.928 81.3196C153.292 81.566 156.771 85.2241 156.744 89.5047C156.731 92.0991 155.475 94.3432 153.544 95.809C153.16 96.1073 152.935 96.5613 152.935 97.0413V143.7C152.935 144.699 153.888 145.465 154.879 145.244C165.804 142.741 171.24 135.697 170.658 124.671C169.746 107.354 167.894 67.0637 165.765 49.5389C165.712 49.1238 165.831 48.6958 166.109 48.3715L190.127 28.9917C190.352 28.7064 190.485 28.3691 190.485 28.0059L190.498 28.0189Z" fill="#27AAE1"/>
<path d="M44.0434 223.879H207.956C208.563 223.879 209.054 224.361 209.054 224.956V253.714C209.054 254.308 208.563 254.79 207.956 254.79H44.0434C43.4371 254.79 42.9456 254.308 42.9456 253.714V224.956C42.9456 224.361 43.4371 223.879 44.0434 223.879Z" fill="#27AAE1"/>
<path d="M24.9182 266.089H227.095C227.701 266.089 228.193 266.571 228.193 267.166V295.924C228.193 296.518 227.701 297 227.095 297H24.9182C24.3119 297 23.8204 296.518 23.8204 295.924V267.166C23.8204 266.571 24.3119 266.089 24.9182 266.089Z" fill="#27AAE1"/>
</g>
<defs>
<clipPath id="clip0_95_229">
<rect width="252" height="297" fill="white" transform="matrix(-1 0 0 1 252 0)"/>
</clipPath>
</defs>
</svg>
